<svg width="319" height="36" viewBox="0 0 319 36" fill="none" xmlns="http://www.w3.org/2000/svg">
<g clip-path="url(#clip0_1_844)">
<path fill-rule="evenodd" clip-rule="evenodd" d="M0.791201 12.1518C6.7282e-08 13.4798 0 15.0817 0 18.2855V20.4151C0 25.8761 1.34564e-07 28.6068 1.78534 30.3033C3.57069 32 6.44415 32 12.1911 32H18.2866C24.0335 32 26.9071 32 28.6923 30.3033C30.4777 28.6068 30.4777 25.8761 30.4777 20.4151V18.2855C30.4777 15.0817 30.4777 13.4798 29.6865 12.1518C28.8954 10.8239 27.4499 9.99972 24.5589 8.35137L21.5112 6.61361C18.4552 4.8712 16.9272 4 15.2389 4C13.5505 4 12.0226 4.8712 8.96659 6.61361L5.91882 8.35139C3.02788 9.99972 1.5824 10.8239 0.791201 12.1518ZM11.3478 22.7565C10.8407 22.4111 10.1249 22.5088 9.74902 22.9748C9.37315 23.4407 9.47952 24.0983 9.98662 24.4435C11.4684 25.4527 13.2807 26.05 15.2389 26.05C17.197 26.05 19.0093 25.4527 20.4911 24.4435C20.9982 24.0983 21.1046 23.4407 20.7287 22.9748C20.3529 22.5088 19.6371 22.4111 19.13 22.7565C18.0199 23.5123 16.6803 23.95 15.2389 23.95C13.7974 23.95 12.4578 23.5123 11.3478 22.7565Z" fill="white"/>
<path d="M51.3576 31.384L40.2536 16.952C40.0189 16.6107 39.7629 16.2693 39.4856 15.928C39.2296 15.5653 38.9736 15.2027 38.7176 14.84H38.6856L38.7496 26.008C38.7496 26.584 38.7389 27.1387 38.7176 27.672C38.7176 28.2053 38.6962 28.6427 38.6536 28.984C39.0162 28.9627 39.4322 28.9413 39.9016 28.92C40.3709 28.8987 40.7442 28.888 41.0216 28.888V31H34.2056V29.24C34.7602 29.2187 35.1869 29.1333 35.4856 28.984C35.8056 28.8133 36.0402 28.536 36.1896 28.152C36.3389 27.7467 36.4136 27.2133 36.4136 26.552L36.3816 13.24C36.3816 12.728 36.3922 12.2373 36.4136 11.768C36.4349 11.2987 36.4562 10.9147 36.4776 10.616C36.1362 10.6373 35.7309 10.6587 35.2616 10.68C34.7922 10.68 34.4189 10.6907 34.1416 10.712V8.6H38.7496L49.2776 22.2C49.7256 22.776 50.1096 23.288 50.4296 23.736C50.7709 24.184 51.0696 24.5893 51.3256 24.952H51.3576V13.304C51.3576 12.7707 51.3682 12.2587 51.3896 11.768C51.4109 11.2773 51.4322 10.8933 51.4536 10.616C51.1122 10.6373 50.7069 10.6587 50.2376 10.68C49.7682 10.68 49.3842 10.6907 49.0856 10.712V8.6H55.9336V10.36C55.3576 10.3813 54.8989 10.488 54.5576 10.68C54.2376 10.8507 54.0136 11.16 53.8856 11.608C53.7576 12.056 53.6936 12.696 53.6936 13.528L53.6616 31.384H51.3576ZM58.7673 31V29.24C59.3646 29.2187 59.8233 29.1227 60.1433 28.952C60.4633 28.76 60.6873 28.44 60.8153 27.992C60.9433 27.5227 61.0073 26.8827 61.0073 26.072V13.304C61.0073 12.7707 61.018 12.2587 61.0393 11.768C61.082 11.2773 61.114 10.8933 61.1353 10.616C60.7726 10.6373 60.3566 10.6587 59.8873 10.68C59.418 10.68 59.0446 10.6907 58.7673 10.712V8.6H67.2793V10.36C66.7033 10.3813 66.2446 10.488 65.9033 10.68C65.5833 10.8507 65.3593 11.16 65.2313 11.608C65.1033 12.056 65.0393 12.696 65.0393 13.528V18.616H74.7033V13.304C74.7033 12.7707 74.714 12.2587 74.7353 11.768C74.7566 11.2773 74.7886 10.8933 74.8313 10.616C74.4686 10.6373 74.0526 10.6587 73.5833 10.68C73.114 10.68 72.7406 10.6907 72.4633 10.712V8.6H80.9753V10.36C80.3993 10.3813 79.9406 10.488 79.5993 10.68C79.2793 10.8507 79.0553 11.16 78.9273 11.608C78.7993 12.056 78.7353 12.696 78.7353 13.528V26.232C78.7353 26.808 78.7246 27.3413 78.7033 27.832C78.682 28.3227 78.65 28.7067 78.6073 28.984C78.97 28.9627 79.386 28.9413 79.8553 28.92C80.346 28.8987 80.7193 28.888 80.9753 28.888V31H72.4633V29.24C73.0606 29.2187 73.5193 29.1227 73.8393 28.952C74.1593 28.76 74.3833 28.44 74.5113 27.992C74.6393 27.5227 74.7033 26.8827 74.7033 26.072V20.664L65.0393 20.792V26.232C65.0393 26.808 65.0286 27.3413 65.0073 27.832C64.986 28.3227 64.954 28.7067 64.9113 28.984C65.274 28.9627 65.69 28.9413 66.1593 28.92C66.6286 28.8987 67.002 28.888 67.2793 28.888V31H58.7673ZM95.0826 31.512C93.0559 31.512 91.3279 31.1707 89.8986 30.488C88.4692 29.8053 87.3066 28.8987 86.4106 27.768C85.5359 26.616 84.8959 25.3467 84.4906 23.96C84.0852 22.5733 83.8826 21.1867 83.8826 19.8C83.8826 18.456 84.1066 17.1013 84.5546 15.736C85.0026 14.3493 85.6852 13.08 86.6026 11.928C87.5412 10.776 88.7146 9.848 90.1226 9.144C91.5306 8.44 93.1839 8.088 95.0826 8.088C97.0239 8.088 98.6986 8.44 100.107 9.144C101.536 9.848 102.699 10.7867 103.595 11.96C104.512 13.112 105.184 14.3707 105.611 15.736C106.059 17.1013 106.283 18.456 106.283 19.8C106.283 21.1227 106.059 22.4667 105.611 23.832C105.163 25.1973 104.469 26.4667 103.531 27.64C102.613 28.792 101.451 29.7307 100.043 30.456C98.6346 31.16 96.9812 31.512 95.0826 31.512ZM95.3386 29.528C96.5332 29.528 97.5359 29.2507 98.3466 28.696C99.1786 28.1413 99.8506 27.416 100.363 26.52C100.875 25.624 101.248 24.6427 101.483 23.576C101.739 22.488 101.867 21.4213 101.867 20.376C101.867 18.9467 101.717 17.6133 101.419 16.376C101.12 15.1173 100.672 14.0187 100.075 13.08C99.4986 12.1413 98.7626 11.4053 97.8666 10.872C96.9706 10.3173 95.9359 10.0507 94.7626 10.072C93.5892 10.0933 92.5866 10.392 91.7546 10.968C90.9439 11.5227 90.2719 12.2587 89.7386 13.176C89.2266 14.072 88.8532 15.064 88.6186 16.152C88.3839 17.24 88.2666 18.3067 88.2666 19.352C88.2666 20.4187 88.3946 21.5387 88.6506 22.712C88.9066 23.8853 89.3119 24.9947 89.8666 26.04C90.4212 27.0853 91.1466 27.928 92.0426 28.568C92.9599 29.208 94.0586 29.528 95.3386 29.528ZM98.7306 10.616V8.696C99.5412 8.696 100.171 8.41867 100.619 7.864C101.088 7.30933 101.323 6.73333 101.323 6.136H104.459C104.459 7.032 104.213 7.82133 103.723 8.504C103.253 9.16533 102.592 9.688 101.739 10.072C100.885 10.4347 99.8826 10.616 98.7306 10.616ZM93.3226 6.36L92.0426 5.24L94.6986 0.823999C94.9546 0.418665 95.2426 0.141331 95.5626 -0.00800133C95.8826 -0.178668 96.2026 -0.253335 96.5226 -0.232002C96.8639 -0.210668 97.1519 -0.104001 97.3866 0.0879993C97.6426 0.322666 97.8026 0.610665 97.8666 0.951998C97.9306 1.272 97.8986 1.61333 97.7706 1.976C97.6639 2.31733 97.4399 2.648 97.0986 2.968L93.3226 6.36ZM129.228 31.32C128.438 29.4213 127.638 27.544 126.828 25.688C126.038 23.8107 125.249 21.9227 124.46 20.024C124.246 19.5333 124.001 18.9253 123.724 18.2C123.446 17.4747 123.169 16.6747 122.892 15.8C122.614 14.9253 122.348 14.0293 122.092 13.112C122.134 13.9867 122.156 14.8187 122.156 15.608C122.177 16.376 122.177 17.1227 122.156 17.848C122.156 18.424 122.145 19.0533 122.124 19.736C122.124 20.4187 122.113 21.1227 122.092 21.848C122.07 22.5733 122.049 23.3093 122.028 24.056C122.028 24.7813 122.028 25.4853 122.028 26.168C122.006 26.7013 121.985 27.224 121.964 27.736C121.942 28.248 121.91 28.664 121.868 28.984C122.252 28.9627 122.678 28.9413 123.148 28.92C123.638 28.8987 124.022 28.888 124.3 28.888V31H117.388V29.24C117.942 29.2187 118.38 29.1333 118.7 28.984C119.02 28.8133 119.254 28.5253 119.404 28.12C119.553 27.7147 119.628 27.1387 119.628 26.392L119.98 13.368C120.001 12.8347 120.012 12.3227 120.012 11.832C120.033 11.3413 120.054 10.936 120.076 10.616C119.734 10.6373 119.329 10.6587 118.86 10.68C118.39 10.68 118.006 10.6907 117.708 10.712V8.6H124.076L129.132 21.08C129.345 21.6347 129.569 22.232 129.804 22.872C130.06 23.512 130.305 24.1413 130.54 24.76C130.774 25.3787 130.977 25.9227 131.148 26.392H131.18C131.457 25.7093 131.724 25.0053 131.98 24.28C132.236 23.5333 132.492 22.84 132.748 22.2C133.601 19.9387 134.465 17.688 135.34 15.448C136.236 13.1867 137.132 10.904 138.028 8.6H144.524V10.36C144.033 10.36 143.606 10.4347 143.244 10.584C142.902 10.7333 142.646 11.0213 142.476 11.448C142.305 11.8533 142.23 12.4933 142.252 13.368L142.86 26.392C142.902 26.904 142.902 27.3947 142.86 27.864C142.838 28.3333 142.817 28.7067 142.796 28.984C143.158 28.9413 143.574 28.92 144.044 28.92C144.534 28.8987 144.918 28.888 145.196 28.888V31H136.876V29.24C137.409 29.2187 137.846 29.1227 138.188 28.952C138.529 28.7813 138.774 28.4827 138.924 28.056C139.073 27.608 139.126 26.9573 139.084 26.104L138.7 18.072C138.7 17.7947 138.678 17.3893 138.636 16.856C138.593 16.3227 138.561 15.7467 138.54 15.128C138.518 14.5093 138.497 13.9227 138.476 13.368C138.412 13.5173 138.337 13.6667 138.252 13.816C138.188 13.9653 138.134 14.1147 138.092 14.264L131.532 31.32H129.228ZM158.895 31.512C156.868 31.512 155.14 31.1707 153.711 30.488C152.282 29.8053 151.119 28.8987 150.223 27.768C149.348 26.616 148.708 25.3467 148.303 23.96C147.898 22.5733 147.695 21.1867 147.695 19.8C147.695 18.456 147.919 17.1013 148.367 15.736C148.815 14.3493 149.498 13.08 150.415 11.928C151.354 10.776 152.527 9.848 153.935 9.144C155.343 8.44 156.996 8.088 158.895 8.088C160.836 8.088 162.511 8.44 163.919 9.144C165.348 9.848 166.511 10.7867 167.407 11.96C168.324 13.112 168.996 14.3707 169.423 15.736C169.871 17.1013 170.095 18.456 170.095 19.8C170.095 21.1227 169.871 22.4667 169.423 23.832C168.975 25.1973 168.282 26.4667 167.343 27.64C166.426 28.792 165.263 29.7307 163.855 30.456C162.447 31.16 160.794 31.512 158.895 31.512ZM159.151 29.528C160.346 29.528 161.348 29.2507 162.159 28.696C162.991 28.1413 163.663 27.416 164.175 26.52C164.687 25.624 165.06 24.6427 165.295 23.576C165.551 22.488 165.679 21.4213 165.679 20.376C165.679 18.9467 165.53 17.6133 165.231 16.376C164.932 15.1173 164.484 14.0187 163.887 13.08C163.311 12.1413 162.575 11.4053 161.679 10.872C160.783 10.3173 159.748 10.0507 158.575 10.072C157.402 10.0933 156.399 10.392 155.567 10.968C154.756 11.5227 154.084 12.2587 153.551 13.176C153.039 14.072 152.666 15.064 152.431 16.152C152.196 17.24 152.079 18.3067 152.079 19.352C152.079 20.4187 152.207 21.5387 152.463 22.712C152.719 23.8853 153.124 24.9947 153.679 26.04C154.234 27.0853 154.959 27.928 155.855 28.568C156.772 29.208 157.871 29.528 159.151 29.528ZM158.927 37.048C158.394 37.048 157.956 36.856 157.615 36.472C157.274 36.088 157.103 35.6293 157.103 35.096C157.103 34.5627 157.284 34.104 157.647 33.72C158.01 33.336 158.436 33.144 158.927 33.144C159.439 33.144 159.855 33.336 160.175 33.72C160.516 34.104 160.687 34.5627 160.687 35.096C160.687 35.6293 160.516 36.088 160.175 36.472C159.855 36.856 159.439 37.048 158.927 37.048ZM163.151 6.392L158.831 3.64L154.415 6.328L153.583 5.08L158.735 0.343998H159.183L164.079 5.048L163.151 6.392ZM189.594 15.672C189.594 14.4773 189.445 13.496 189.146 12.728C188.847 11.9387 188.399 11.352 187.802 10.968C187.226 10.584 186.49 10.4027 185.594 10.424H183.642V26.232C183.642 26.808 183.631 27.3413 183.61 27.832C183.589 28.3227 183.557 28.7067 183.514 28.984C183.919 28.9627 184.378 28.9413 184.89 28.92C185.423 28.8987 185.829 28.888 186.106 28.888V31H177.37V29.24C177.967 29.2187 178.426 29.112 178.746 28.92C179.066 28.728 179.29 28.408 179.418 27.96C179.546 27.512 179.61 26.8827 179.61 26.072L179.642 10.456H177.562C176.303 10.4773 175.343 10.904 174.682 11.736C174.021 12.568 173.69 13.88 173.69 15.672H171.898L172.058 8.6H191.226L191.418 15.672H189.594ZM219.295 31.384L208.191 16.952C207.956 16.6107 207.7 16.2693 207.423 15.928C207.167 15.5653 206.911 15.2027 206.655 14.84H206.623L206.687 26.008C206.687 26.584 206.676 27.1387 206.655 27.672C206.655 28.2053 206.634 28.6427 206.591 28.984C206.954 28.9627 207.37 28.9413 207.839 28.92C208.308 28.8987 208.682 28.888 208.959 28.888V31H202.143V29.24C202.698 29.2187 203.124 29.1333 203.423 28.984C203.743 28.8133 203.978 28.536 204.127 28.152C204.276 27.7467 204.351 27.2133 204.351 26.552L204.319 13.24C204.319 12.728 204.33 12.2373 204.351 11.768C204.372 11.2987 204.394 10.9147 204.415 10.616C204.074 10.6373 203.668 10.6587 203.199 10.68C202.73 10.68 202.356 10.6907 202.079 10.712V8.6H206.687L217.215 22.2C217.663 22.776 218.047 23.288 218.367 23.736C218.708 24.184 219.007 24.5893 219.263 24.952H219.295V13.304C219.295 12.7707 219.306 12.2587 219.327 11.768C219.348 11.2773 219.37 10.8933 219.391 10.616C219.05 10.6373 218.644 10.6587 218.175 10.68C217.706 10.68 217.322 10.6907 217.023 10.712V8.6H223.871V10.36C223.295 10.3813 222.836 10.488 222.495 10.68C222.175 10.8507 221.951 11.16 221.823 11.608C221.695 12.056 221.631 12.696 221.631 13.528L221.599 31.384H219.295ZM236.951 31.512C234.689 31.512 232.748 31.032 231.127 30.072C229.505 29.0907 228.257 27.7467 227.383 26.04C226.508 24.312 226.071 22.36 226.071 20.184C226.071 18.712 226.295 17.2613 226.743 15.832C227.212 14.3813 227.905 13.08 228.823 11.928C229.74 10.7547 230.892 9.82667 232.279 9.144C233.687 8.44 235.319 8.088 237.175 8.088C237.815 8.088 238.508 8.152 239.255 8.28C240.001 8.408 240.737 8.6 241.463 8.856C242.209 9.09067 242.871 9.37867 243.447 9.72L243.319 8.312H245.559V15.736H243.799C243.628 14.4773 243.255 13.432 242.679 12.6C242.103 11.768 241.367 11.1387 240.471 10.712C239.596 10.264 238.615 10.04 237.527 10.04C236.417 10.04 235.415 10.296 234.519 10.808C233.644 11.32 232.897 12.0133 232.279 12.888C231.681 13.7627 231.223 14.7653 230.903 15.896C230.583 17.0267 230.423 18.232 230.423 19.512C230.423 21.3893 230.711 23.0747 231.287 24.568C231.884 26.04 232.727 27.2027 233.815 28.056C234.903 28.888 236.215 29.304 237.751 29.304C238.22 29.304 238.743 29.272 239.319 29.208C239.895 29.1227 240.471 28.9947 241.047 28.824C241.623 28.6533 242.135 28.4507 242.583 28.216V24.92C242.583 24.3653 242.593 23.8213 242.615 23.288C242.636 22.7547 242.657 22.3173 242.679 21.976C242.316 21.9973 241.9 22.0187 241.431 22.04C240.961 22.04 240.588 22.0507 240.311 22.072V19.96H248.407V21.72C247.959 21.7413 247.596 21.8267 247.319 21.976C247.041 22.104 246.817 22.3067 246.647 22.584C246.476 22.84 246.359 23.16 246.295 23.544C246.231 23.928 246.199 24.3653 246.199 24.856V29.88H245.399C244.887 29.88 244.321 29.9653 243.703 30.136C243.084 30.2853 242.412 30.4773 241.687 30.712C241.025 30.9253 240.289 31.1067 239.479 31.256C238.668 31.4267 237.825 31.512 236.951 31.512ZM258.386 10.36C257.832 10.3813 257.384 10.4773 257.042 10.648C256.722 10.8187 256.488 11.096 256.338 11.48C256.21 11.8427 256.146 12.3653 256.146 13.048V21.624C256.146 22.904 256.264 24.024 256.498 24.984C256.754 25.9227 257.117 26.712 257.586 27.352C258.056 27.992 258.632 28.472 259.314 28.792C260.018 29.112 260.829 29.272 261.746 29.272C263.026 29.3147 264.104 29.048 264.978 28.472C265.874 27.896 266.546 27.0533 266.994 25.944C267.442 24.8347 267.666 23.48 267.666 21.88L267.698 13.304C267.698 12.7707 267.709 12.2587 267.73 11.768C267.752 11.2773 267.784 10.8933 267.826 10.616C267.464 10.6373 267.048 10.6587 266.578 10.68C266.109 10.68 265.736 10.6907 265.458 10.712V8.6H272.37V10.36C271.794 10.3813 271.336 10.488 270.994 10.68C270.674 10.8507 270.45 11.16 270.322 11.608C270.194 12.056 270.13 12.696 270.13 13.528L270.098 21.336C270.098 23.0213 269.896 24.504 269.49 25.784C269.106 27.0427 268.53 28.0987 267.762 28.952C266.994 29.8053 266.066 30.4453 264.978 30.872C263.89 31.2987 262.653 31.512 261.266 31.512C259.496 31.512 258.013 31.2667 256.818 30.776C255.645 30.2853 254.706 29.5813 254.002 28.664C253.32 27.7253 252.829 26.6267 252.53 25.368C252.253 24.088 252.114 22.6587 252.114 21.08V13.752C252.114 13.1973 252.125 12.6213 252.146 12.024C252.189 11.4053 252.221 10.936 252.242 10.616C251.88 10.6373 251.464 10.6587 250.994 10.68C250.525 10.68 250.152 10.6907 249.874 10.712V8.6H258.386V10.36ZM269.202 10.616V8.696C270.013 8.696 270.642 8.41867 271.09 7.864C271.56 7.30933 271.794 6.73333 271.794 6.136H274.93C274.93 7.032 274.685 7.82133 274.194 8.504C273.725 9.16533 273.064 9.688 272.21 10.072C271.357 10.4347 270.354 10.616 269.202 10.616ZM285.645 31.512C283.618 31.512 281.89 31.1707 280.461 30.488C279.032 29.8053 277.869 28.8987 276.973 27.768C276.098 26.616 275.458 25.3467 275.053 23.96C274.648 22.5733 274.445 21.1867 274.445 19.8C274.445 18.456 274.669 17.1013 275.117 15.736C275.565 14.3493 276.248 13.08 277.165 11.928C278.104 10.776 279.277 9.848 280.685 9.144C282.093 8.44 283.746 8.088 285.645 8.088C287.586 8.088 289.261 8.44 290.669 9.144C292.098 9.848 293.261 10.7867 294.157 11.96C295.074 13.112 295.746 14.3707 296.173 15.736C296.621 17.1013 296.845 18.456 296.845 19.8C296.845 21.1227 296.621 22.4667 296.173 23.832C295.725 25.1973 295.032 26.4667 294.093 27.64C293.176 28.792 292.013 29.7307 290.605 30.456C289.197 31.16 287.544 31.512 285.645 31.512ZM285.901 29.528C287.096 29.528 288.098 29.2507 288.909 28.696C289.741 28.1413 290.413 27.416 290.925 26.52C291.437 25.624 291.81 24.6427 292.045 23.576C292.301 22.488 292.429 21.4213 292.429 20.376C292.429 18.9467 292.28 17.6133 291.981 16.376C291.682 15.1173 291.234 14.0187 290.637 13.08C290.061 12.1413 289.325 11.4053 288.429 10.872C287.533 10.3173 286.498 10.0507 285.325 10.072C284.152 10.0933 283.149 10.392 282.317 10.968C281.506 11.5227 280.834 12.2587 280.301 13.176C279.789 14.072 279.416 15.064 279.181 16.152C278.946 17.24 278.829 18.3067 278.829 19.352C278.829 20.4187 278.957 21.5387 279.213 22.712C279.469 23.8853 279.874 24.9947 280.429 26.04C280.984 27.0853 281.709 27.928 282.605 28.568C283.522 29.208 284.621 29.528 285.901 29.528ZM289.293 10.616V8.696C290.104 8.696 290.733 8.41867 291.181 7.864C291.65 7.30933 291.885 6.73333 291.885 6.136H295.021C295.021 7.032 294.776 7.82133 294.285 8.504C293.816 9.16533 293.154 9.688 292.301 10.072C291.448 10.4347 290.445 10.616 289.293 10.616ZM287.213 6.36L283.437 2.968C283.117 2.648 282.882 2.31733 282.733 1.976C282.605 1.61333 282.573 1.272 282.637 0.951998C282.722 0.610665 282.893 0.322666 283.149 0.0879993C283.405 -0.104001 283.693 -0.210668 284.013 -0.232002C284.333 -0.253335 284.653 -0.178668 284.973 -0.00800133C285.314 0.141331 285.602 0.418665 285.837 0.823999L288.493 5.24L287.213 6.36ZM308.248 10.36C307.672 10.3813 307.213 10.488 306.872 10.68C306.552 10.8507 306.328 11.16 306.2 11.608C306.072 12.056 306.008 12.696 306.008 13.528V26.232C306.008 26.808 305.997 27.3413 305.976 27.832C305.955 28.3227 305.923 28.7067 305.88 28.984C306.243 28.9627 306.659 28.9413 307.128 28.92C307.597 28.8987 307.971 28.888 308.248 28.888V31H299.736V29.24C300.333 29.2187 300.792 29.1227 301.112 28.952C301.432 28.76 301.656 28.44 301.784 27.992C301.912 27.5227 301.976 26.8827 301.976 26.072V13.304C301.976 12.7707 301.987 12.2587 302.008 11.768C302.051 11.2773 302.083 10.8933 302.104 10.616C301.741 10.6373 301.325 10.6587 300.856 10.68C300.387 10.68 300.013 10.6907 299.736 10.712V8.6H308.248V10.36Z" fill="white"/>
</g>
<defs>
<clipPath id="clip0_1_844">
<rect width="319" height="36" fill="white"/>
</clipPath>
</defs>
</svg>
